<svg xmlns="http://www.w3.org/2000/svg" width="900" height="480" viewBox="0 0 900 480" role="img" aria-labelledby="title desc">
<title id="title">Scoped staleness realized-option heterogeneity support</title>
<desc id="desc">Grouped source-count bars compare D5 train plus development with the once-opened D8 confirmatory test.</desc>
<rect width="900" height="480" fill="white"/>
<text x="450" y="30" text-anchor="middle" font-family="sans-serif" font-size="18" font-weight="600">Scoped staleness realized-option heterogeneity support</text>
<line x1="80" y1="70" x2="80" y2="375" stroke="#222"/>
<line x1="80" y1="375" x2="800" y2="375" stroke="#222"/>
<text x="18" y="222.5" transform="rotate(-90 18 222.5)" text-anchor="middle" font-family="sans-serif" font-size="13">Independent physical sources</text>
<line x1="80" y1="375.00" x2="800" y2="375.00" stroke="#ddd"/>
<text x="70" y="379.00" text-anchor="end" font-family="sans-serif" font-size="11">0</text>
<line x1="80" y1="327.34" x2="800" y2="327.34" stroke="#ddd"/>
<text x="70" y="331.34" text-anchor="end" font-family="sans-serif" font-size="11">5</text>
<line x1="80" y1="279.69" x2="800" y2="279.69" stroke="#ddd"/>
<text x="70" y="283.69" text-anchor="end" font-family="sans-serif" font-size="11">10</text>
<line x1="80" y1="232.03" x2="800" y2="232.03" stroke="#ddd"/>
<text x="70" y="236.03" text-anchor="end" font-family="sans-serif" font-size="11">15</text>
<line x1="80" y1="184.38" x2="800" y2="184.38" stroke="#ddd"/>
<text x="70" y="188.38" text-anchor="end" font-family="sans-serif" font-size="11">20</text>
<line x1="80" y1="136.72" x2="800" y2="136.72" stroke="#ddd"/>
<text x="70" y="140.72" text-anchor="end" font-family="sans-serif" font-size="11">25</text>
<line x1="80" y1="89.06" x2="800" y2="89.06" stroke="#ddd"/>
<text x="70" y="93.06" text-anchor="end" font-family="sans-serif" font-size="11">30</text>
<rect x="115.00" y="336.88" width="34" height="38.12" fill="#31688e"/>
<text x="132.00" y="330.88" text-anchor="middle" font-family="sans-serif" font-size="11">4</text>
<rect x="155.00" y="365.47" width="34" height="9.53" fill="#35b779"/>
<text x="172.00" y="359.47" text-anchor="middle" font-family="sans-serif" font-size="11">1</text>
<text x="152.00" y="399" text-anchor="middle" font-family="sans-serif" font-size="11">B=0</text>
<rect x="259.00" y="70.00" width="34" height="305.00" fill="#31688e"/>
<text x="276.00" y="64.00" text-anchor="middle" font-family="sans-serif" font-size="11">32</text>
<rect x="299.00" y="79.53" width="34" height="295.47" fill="#35b779"/>
<text x="316.00" y="73.53" text-anchor="middle" font-family="sans-serif" font-size="11">31</text>
<text x="296.00" y="399" text-anchor="middle" font-family="sans-serif" font-size="11">B=1</text>
<rect x="403.00" y="184.38" width="34" height="190.62" fill="#31688e"/>
<text x="420.00" y="178.38" text-anchor="middle" font-family="sans-serif" font-size="11">20</text>
<rect x="443.00" y="174.84" width="34" height="200.16" fill="#35b779"/>
<text x="460.00" y="168.84" text-anchor="middle" font-family="sans-serif" font-size="11">21</text>
<text x="440.00" y="399" text-anchor="middle" font-family="sans-serif" font-size="11">Refresh strict</text>
<rect x="547.00" y="174.84" width="34" height="200.16" fill="#31688e"/>
<text x="564.00" y="168.84" text-anchor="middle" font-family="sans-serif" font-size="11">21</text>
<rect x="587.00" y="165.31" width="34" height="209.69" fill="#35b779"/>
<text x="604.00" y="159.31" text-anchor="middle" font-family="sans-serif" font-size="11">22</text>
<text x="584.00" y="399" text-anchor="middle" font-family="sans-serif" font-size="11">Safe-stop strict</text>
<rect x="691.00" y="98.59" width="34" height="276.41" fill="#31688e"/>
<text x="708.00" y="92.59" text-anchor="middle" font-family="sans-serif" font-size="11">29</text>
<rect x="731.00" y="117.66" width="34" height="257.34" fill="#35b779"/>
<text x="748.00" y="111.66" text-anchor="middle" font-family="sans-serif" font-size="11">27</text>
<text x="728.00" y="399" text-anchor="middle" font-family="sans-serif" font-size="11">Same-risk flip</text>
<rect x="210" y="442" width="14" height="14" fill="#31688e"/>
<text x="232" y="454" font-family="sans-serif" font-size="12">D5 train+development (n=36)</text>
<rect x="500" y="442" width="14" height="14" fill="#35b779"/>
<text x="522" y="454" font-family="sans-serif" font-size="12">D8 confirmatory test (n=32)</text>
</svg>
